<?xml version="1.0" standalone="no"?>
<!DOCTYPE svg PUBLIC "-//W3C//DTD SVG 20010904//EN"
 "http://www.w3.org/TR/2001/REC-SVG-20010904/DTD/svg10.dtd">
<svg version="1.0" xmlns="http://www.w3.org/2000/svg"
 width="1080.000000pt" height="1080.000000pt" viewBox="0 0 1080.000000 1080.000000"
 preserveAspectRatio="xMidYMid meet">

<g transform="translate(0.000000,1080.000000) scale(0.100000,-0.100000)"
fill="#000000" stroke="none">
<path d="M5240 9569 c-58 -4 -134 -7 -169 -8 l-64 -1 6 -120 c4 -66 10 -174
14 -241 l6 -121 101 6 c56 4 136 9 179 12 l77 6 0 35 0 36 -134 -7 -133 -7 -7
38 c-16 99 -12 103 116 103 99 0 108 4 108 47 l0 34 -111 -7 c-127 -8 -129 -7
-129 67 l0 46 130 8 130 7 0 33 c0 19 -3 35 -7 37 -5 2 -55 0 -113 -3z"/>
<path d="M5659 9568 c-4 -9 -55 -464 -53 -469 2 -3 61 -11 133 -19 150 -14
206 -6 271 41 99 72 119 236 39 332 -48 58 -117 85 -260 102 -142 17 -129 16
-130 13z m254 -112 c121 -50 128 -235 12 -290 -30 -15 -56 -17 -126 -14 -49 2
-91 6 -94 9 -2 3 3 77 12 163 l17 159 73 -7 c40 -3 88 -12 106 -20z"/>
<path d="M4712 9523 c-12 -2 -26 -12 -31 -21 -4 -9 -23 -93 -41 -187 -18 -93
-36 -174 -40 -178 -4 -5 -50 52 -103 125 -138 194 -126 182 -175 173 -23 -4
-42 -10 -42 -14 0 -9 275 -390 293 -407 8 -7 25 -8 52 -2 l40 8 51 255 c54
273 54 259 -4 248z"/>
<path d="M6423 9386 c-91 -43 -139 -132 -130 -243 10 -133 115 -222 265 -223
144 -1 242 99 242 249 0 134 -105 232 -255 239 -58 2 -79 -1 -122 -22z m184
-67 c36 -13 82 -57 94 -88 16 -40 13 -105 -6 -145 -50 -106 -211 -118 -286
-22 -35 45 -39 139 -7 186 49 71 128 98 205 69z"/>
<path d="M3850 9274 c-19 -8 -36 -16 -37 -18 -3 -3 153 -421 163 -437 4 -7
297 101 310 114 6 6 -14 67 -22 67 -2 0 -51 -18 -109 -41 -58 -22 -110 -39
-116 -37 -6 2 -41 83 -78 180 -36 97 -69 179 -71 181 -3 3 -21 -1 -40 -9z"/>
<path d="M7028 8998 c-57 -112 -104 -208 -106 -213 -2 -10 67 -50 73 -43 1 2
13 23 25 48 36 73 36 73 93 43 29 -14 53 -27 55 -28 2 -2 9 -40 15 -86 l12
-84 44 -24 44 -24 -6 31 c-4 17 -9 60 -13 95 l-6 64 40 7 c109 17 168 151 106
242 -35 51 -41 55 -166 119 l-108 55 -102 -202z m223 57 c75 -43 88 -59 89
-106 0 -46 -39 -89 -83 -89 -24 0 -138 48 -156 66 -6 6 71 164 80 164 4 0 35
-16 70 -35z"/>
<path d="M3354 9041 c-94 -43 -164 -140 -164 -230 0 -74 20 -122 75 -176 76
-76 156 -93 257 -55 179 67 235 264 115 406 -59 70 -192 96 -283 55z m164 -75
c123 -64 127 -242 5 -302 -84 -41 -189 -9 -226 69 -25 51 -22 127 6 168 46 68
149 99 215 65z"/>
<path d="M2896 8741 l-28 -29 52 -182 c29 -99 50 -183 47 -186 -3 -3 -82 33
-176 81 l-172 85 -34 -27 c-19 -16 -35 -30 -35 -33 0 -3 104 -56 231 -118
l230 -114 35 27 c20 15 33 32 31 39 -2 6 -35 118 -72 249 -37 130 -71 237 -75
237 -3 0 -19 -13 -34 -29z"/>
<path d="M7973 8633 c-11 -27 -58 -128 -103 -226 l-83 -177 28 -30 c16 -17 35
-30 42 -30 7 0 81 36 164 80 83 45 153 79 155 77 2 -2 -30 -77 -72 -167 l-76
-164 34 -28 c18 -15 36 -28 40 -28 8 0 419 218 431 229 4 4 -6 20 -22 35 l-29
28 -161 -87 c-89 -48 -164 -85 -167 -82 -3 3 29 79 70 168 l76 163 -29 29 -29
30 -166 -86 c-91 -48 -166 -85 -166 -83 0 3 34 77 75 166 41 89 75 165 75 169
0 8 -53 61 -61 61 -3 0 -14 -21 -26 -47z"/>
<path d="M2343 8240 c-13 -15 -23 -31 -23 -34 0 -3 52 -49 115 -102 63 -54
115 -99 115 -101 0 -2 -93 -3 -207 -2 l-207 1 -19 -26 c-11 -15 -17 -29 -14
-32 2 -3 83 -72 178 -154 165 -141 175 -148 192 -132 46 41 44 46 -75 147 -62
53 -114 99 -116 104 -1 4 89 5 200 3 l203 -4 24 26 c25 26 25 27 5 45 -41 41
-338 291 -343 290 -3 0 -16 -13 -28 -29z"/>
<path d="M8503 7821 l-193 -139 106 -146 105 -146 30 21 c17 12 26 25 22 32
-4 7 -38 54 -75 106 -37 51 -68 97 -68 101 0 15 102 83 108 73 49 -72 125
-173 130 -173 12 0 52 30 52 39 0 4 -27 46 -60 92 -33 46 -60 87 -60 91 0 8
79 68 89 68 3 0 39 -47 80 -105 l73 -104 29 21 c16 12 29 23 29 25 0 4 -201
283 -203 282 -1 0 -89 -62 -194 -138z"/>
<path d="M1826 7549 c-49 -82 -87 -151 -85 -153 2 -2 93 -56 203 -120 125 -75
202 -114 208 -108 12 12 179 294 176 297 -2 0 -16 9 -31 19 -16 10 -30 16 -31
14 -2 -2 -33 -54 -70 -116 l-67 -112 -51 27 c-27 16 -52 33 -55 39 -2 6 21 53
52 105 l57 93 -24 18 c-12 9 -27 18 -33 18 -5 0 -35 -43 -65 -95 -30 -52 -58
-95 -63 -95 -6 0 -83 45 -96 56 -2 2 26 54 63 115 37 61 65 112 64 113 -2 1
-15 10 -30 19 -15 9 -29 17 -30 17 -2 0 -43 -68 -92 -151z"/>
<path d="M8838 7307 l-206 -102 64 -130 c75 -154 121 -205 181 -205 66 0 121
45 125 102 2 26 4 26 48 21 89 -10 150 52 136 140 -7 41 -121 278 -134 276 -4
0 -100 -46 -214 -102z m237 -79 c40 -83 43 -110 15 -138 -26 -26 -62 -25 -87
3 -18 19 -83 138 -83 152 0 7 92 54 108 55 7 0 28 -32 47 -72z m-175 -100 c44
-90 48 -113 24 -146 -19 -28 -67 -29 -94 -2 -20 20 -90 152 -90 170 0 10 87
59 108 60 7 0 31 -37 52 -82z"/>
<path d="M1595 7086 c-118 -144 -90 -323 50 -328 46 -2 74 19 151 113 69 84
101 98 129 55 29 -44 -9 -144 -75 -200 -31 -25 -31 -26 -13 -51 25 -34 40 -31
83 14 51 54 83 124 87 196 4 70 -8 100 -56 132 -67 46 -126 25 -197 -69 -59
-79 -80 -98 -110 -98 -32 0 -57 39 -48 76 11 45 33 86 67 121 l30 32 -24 25
c-13 14 -27 26 -31 26 -4 0 -23 -20 -43 -44z"/>
<path d="M1354 6412 c-20 -86 -37 -163 -38 -170 -1 -10 65 -30 219 -68 121
-30 224 -54 230 -54 8 0 98 340 92 347 -1 0 -18 4 -37 8 l-35 6 -29 -126 c-16
-69 -32 -128 -36 -130 -13 -8 -131 28 -127 39 13 34 50 206 46 211 -3 2 -19 7
-35 11 l-30 6 -24 -101 c-13 -55 -27 -105 -30 -111 -6 -10 -48 -4 -106 15 -9
2 -3 40 18 125 18 70 27 125 22 129 -5 5 -21 11 -36 15 l-26 6 -38 -158z"/>
<path d="M9002 6354 c-26 -18 -30 -65 -7 -84 22 -18 66 -15 82 6 19 25 16 51
-7 74 -24 24 -38 25 -68 4z"/>
<path d="M1372 5904 c-56 -28 -105 -90 -122 -153 -5 -20 -12 -89 -16 -153 l-7
-117 34 -5 c19 -3 125 -11 236 -19 l202 -12 5 40 c13 105 15 206 6 254 -29
155 -195 237 -338 165z m187 -83 c56 -29 74 -63 79 -153 2 -42 1 -89 -2 -104
l-7 -26 -97 6 c-53 4 -126 9 -161 13 l-64 6 6 78 c6 94 35 153 87 181 45 23
111 23 159 -1z"/>
<path d="M9245 5723 c-153 -4 -155 -5 -155 -53 l0 -40 90 0 90 0 0 -47 c0 -27
3 -78 7 -115 l6 -68 34 0 35 0 -3 118 -4 117 71 3 71 3 7 -47 c3 -26 6 -84 6
-130 l0 -84 39 0 40 0 -5 133 c-3 72 -7 151 -10 175 l-5 42 -102 -2 c-56 -1
-151 -4 -212 -5z"/>
<path d="M9088 5128 c-3 -24 -4 -44 -3 -46 1 -1 33 -5 70 -9 l67 -6 -5 -58
c-3 -32 -8 -63 -12 -69 -3 -6 -37 -26 -74 -45 -69 -34 -81 -49 -81 -102 0 -13
2 -23 5 -23 3 0 38 17 78 37 39 21 74 39 77 40 3 2 14 -13 24 -32 32 -58 89
-82 183 -76 33 2 89 55 108 103 18 46 47 259 36 269 -3 4 -98 16 -211 28 -113
12 -217 24 -231 27 -25 5 -27 2 -31 -38z m388 -157 c-12 -118 -56 -166 -128
-142 -49 16 -62 44 -60 126 3 107 -3 102 103 91 l91 -9 -6 -66z"/>
<path d="M1693 4789 c-40 -15 -41 -78 -2 -99 30 -16 73 8 77 43 5 46 -30 73
-75 56z"/>
<path d="M9096 4526 c-143 -53 -211 -229 -143 -368 63 -128 228 -173 345 -95
167 113 161 361 -11 448 -52 27 -140 34 -191 15z m158 -99 c54 -30 78 -67 84
-126 11 -122 -92 -212 -208 -181 -87 24 -143 116 -120 200 30 110 148 162 244
107z"/>
<path d="M1712 4106 c-123 -40 -187 -143 -168 -268 10 -64 100 -264 117 -260
34 7 419 176 419 184 0 28 -97 232 -127 267 -63 75 -156 104 -241 77z m133
-90 c18 -8 47 -33 63 -55 29 -39 79 -149 71 -155 -2 -1 -69 -30 -149 -64
l-145 -62 -29 63 c-51 111 -45 194 19 243 57 43 113 53 170 30z"/>
<path d="M8775 3880 c-8 -16 -15 -34 -15 -39 0 -6 62 -42 138 -80 81 -41 131
-71 122 -75 -8 -2 -91 -21 -185 -41 -216 -46 -203 -41 -221 -77 -13 -25 -14
-32 -2 -39 30 -20 410 -210 413 -207 5 6 35 67 35 72 0 3 -64 38 -142 78
l-143 71 130 29 c72 15 163 36 203 44 63 14 75 20 88 46 9 17 12 34 7 38 -10
10 -397 210 -406 210 -4 0 -13 -13 -22 -30z"/>
<path d="M2003 3412 c-106 -70 -193 -131 -193 -137 0 -5 10 -23 23 -39 l23
-28 129 85 c72 47 131 84 133 83 1 -2 -25 -90 -57 -196 -58 -188 -59 -195 -43
-222 9 -15 20 -28 24 -28 4 0 95 58 202 128 l195 129 -25 36 -25 37 -120 -81
c-66 -44 -126 -82 -133 -85 -9 -3 8 63 46 188 59 192 59 193 42 226 -9 17 -20
32 -23 31 -3 0 -93 -58 -198 -127z"/>
<path d="M8380 3218 c-8 -13 -18 -28 -22 -34 -4 -7 55 -57 152 -128 88 -65
160 -120 160 -123 0 -2 -21 -31 -46 -64 l-46 -60 24 -19 c13 -11 28 -19 34
-17 7 1 64 73 129 160 l116 158 -23 19 c-13 11 -27 19 -33 19 -5 1 -28 -24
-50 -55 -22 -31 -43 -58 -47 -60 -4 -3 -77 47 -162 111 -85 63 -159 115 -163
115 -5 0 -15 -10 -23 -22z"/>
<path d="M2533 3011 c-28 -24 -29 -33 -2 -57 12 -10 52 -53 89 -95 l69 -75
-51 -44 -51 -43 -78 84 -77 84 -27 -26 -26 -25 76 -81 c41 -45 75 -85 74 -90
0 -4 -19 -24 -41 -43 l-41 -35 -89 95 -89 94 -26 -26 -26 -27 118 -126 118
-126 26 24 c139 125 316 293 316 299 0 8 -228 258 -235 258 -3 -1 -15 -9 -27
-19z"/>
<path d="M7767 2564 l-138 -117 22 -23 c13 -13 26 -24 30 -24 4 0 50 36 103
81 52 44 100 79 105 77 5 -1 26 -23 46 -48 l37 -44 -58 -51 c-32 -27 -72 -62
-89 -77 l-30 -27 25 -25 25 -26 82 70 c45 39 87 70 92 70 12 0 71 -71 71 -85
-1 -5 -37 -39 -81 -75 -113 -92 -112 -89 -85 -123 l22 -27 119 101 c66 55 126
107 134 114 11 11 -11 42 -139 194 -84 100 -153 181 -154 181 -1 0 -64 -52
-139 -116z"/>
<path d="M3184 2403 c3 -16 10 -77 16 -138 6 -60 12 -122 15 -136 4 -27 3 -27
-128 -59 -73 -18 -136 -35 -140 -37 -5 -3 8 -17 29 -31 l37 -25 160 37 c88 20
162 34 164 32 2 -2 -21 -43 -52 -91 -31 -48 -59 -93 -61 -100 -3 -7 11 -22 31
-33 l35 -22 44 68 c23 37 82 127 129 199 l86 133 -36 25 -37 25 -35 -54 c-30
-45 -41 -55 -72 -60 -21 -3 -44 -8 -52 -12 -11 -4 -16 7 -21 48 -26 206 -26
207 -65 233 -46 32 -54 31 -47 -2z"/>
<path d="M7418 2302 c-16 -9 -28 -19 -28 -23 0 -3 34 -63 76 -133 42 -70 74
-130 71 -132 -2 -3 -89 26 -193 64 -182 66 -190 68 -216 53 -15 -9 -28 -20
-28 -25 0 -7 225 -393 235 -404 3 -3 75 38 75 43 0 2 -36 63 -79 136 -44 74
-79 135 -77 136 1 1 87 -29 191 -67 167 -62 193 -69 218 -59 15 7 30 15 33 20
6 11 -228 409 -241 409 -5 0 -22 -8 -37 -18z"/>
<path d="M3732 2053 c-29 -6 -36 -22 -22 -57 9 -26 13 -27 54 -21 106 16 206
-65 206 -167 0 -54 -37 -115 -86 -144 -37 -22 -54 -26 -94 -22 -56 6 -121 44
-138 83 -13 27 -27 30 -67 15 l-26 -10 21 -39 c65 -129 272 -172 384 -79 92
76 119 200 65 303 -54 102 -179 160 -297 138z"/>
<path d="M6764 1966 c-128 -48 -167 -69 -207 -116 -100 -117 -56 -306 85 -364
66 -28 144 -21 270 25 62 22 116 43 120 47 11 11 -148 437 -164 439 -7 1 -54
-13 -104 -31z m113 -215 c29 -79 51 -147 48 -151 -10 -16 -140 -53 -182 -52
-90 1 -159 81 -150 174 6 70 41 109 129 147 40 17 79 30 87 28 8 -1 36 -61 68
-146z"/>
<path d="M4242 1853 c36 -217 84 -467 92 -479 6 -8 28 -15 48 -17 37 -2 38 -1
197 198 l160 200 -42 13 c-46 14 -40 17 -99 -58 l-19 -24 -117 29 -117 30 -9
57 c-8 51 -12 58 -39 68 -49 17 -60 13 -55 -17z m206 -206 l83 -23 -68 -89
-68 -89 -12 65 c-16 89 -26 159 -21 159 1 0 40 -11 86 -23z"/>
<path d="M5882 1743 c-7 -3 -18 -16 -23 -30 -13 -36 12 -73 49 -73 35 0 52 16
52 50 0 43 -39 69 -78 53z"/>
<path d="M4966 1710 c-90 -29 -114 -134 -46 -201 l28 -29 -29 -29 c-24 -24
-29 -38 -29 -76 0 -40 5 -52 33 -80 39 -39 88 -51 250 -61 100 -6 107 -5 107
12 0 11 7 98 15 194 18 221 19 256 2 263 -27 10 -303 16 -331 7z m251 -74 c3
-3 2 -34 -1 -70 l-7 -64 -57 4 c-115 10 -144 16 -163 35 -25 25 -24 64 2 90
20 20 29 21 121 16 55 -3 102 -8 105 -11z m-19 -263 l-3 -68 -70 3 c-90 5
-139 27 -143 65 -6 54 19 67 125 67 l94 0 -3 -67z"/>
</g>
</svg>
